<svg width="18" height="15" viewBox="0 0 18 15" fill="none" xmlns="http://www.w3.org/2000/svg">
<path fill-rule="evenodd" clip-rule="evenodd" d="M0.707159 6.67715C0.307804 6.73213 0 7.07953 0 7.49989C0 7.95846 0.366312 8.33021 0.818182 8.33021H15.1999L10.0047 13.5813L9.92528 13.6743C9.68696 13.9989 9.71243 14.4602 10.0023 14.7556C10.3212 15.0805 10.8392 15.0816 11.1594 14.758L17.7477 8.09955C17.787 8.06142 17.8224 8.01937 17.8536 7.97401C18.0766 7.64976 18.0452 7.19994 17.7593 6.91106L11.1593 0.241932L11.0674 0.161737C10.7466 -0.0787468 10.2921 -0.0509548 10.0023 0.244461C9.68342 0.569419 9.68454 1.09515 10.0047 1.41871L15.2012 6.66957L0.818182 6.66957L0.707159 6.67715Z" fill="#200E32"/>
</svg>
