<svg width="19" height="20" viewBox="0 0 19 20" fill="none" xmlns="http://www.w3.org/2000/svg">
<path fill-rule="evenodd" clip-rule="evenodd" d="M14.3801 4.38196C14.1229 1.9198 12.031 8.5719e-05 9.48851 8.5719e-05C8.18357 -0.00537867 6.92727 0.507775 6.00043 1.4261C5.1959 2.22325 4.69715 3.26869 4.57952 4.38196H4.57864C2.79724 4.38196 1.30058 5.68312 0.880106 7.94236L0.119222 13.8124C-0.52845 18.1106 1.49286 20 5.44875 20H13.546C17.2043 20 19.3909 17.8703 18.9419 14.0483L18.1564 7.98171C17.6528 5.69437 16.1947 4.38196 14.4516 4.38196H14.3801ZM12.9138 4.38196C12.6653 2.72154 11.2261 1.44782 9.48545 1.44781C8.56439 1.44396 7.67973 1.80531 7.02708 2.45197C6.49719 2.97699 6.15567 3.65499 6.04594 4.38196H12.9138ZM4.57864 5.82969H14.4516C15.4739 5.82969 16.3719 6.63797 16.7244 8.22993L17.468 13.9973C17.9105 17.0658 16.4375 18.5523 13.546 18.5523H5.44875C2.31775 18.5523 1.05418 17.3711 1.56021 14.0122L2.31697 8.16663C2.60614 6.6189 3.51393 5.82969 4.57864 5.82969ZM12.3652 8.51644C12.767 8.51644 13.0927 8.84053 13.0927 9.24031C13.0927 9.60677 12.819 9.90963 12.4639 9.95756L12.3652 9.96417H12.3208C11.919 9.96417 11.5933 9.64009 11.5933 9.24031C11.5933 8.87384 11.867 8.57098 12.2221 8.52305L12.3208 8.51644H12.3652ZM7.437 9.24031C7.437 8.84053 7.11129 8.51644 6.70951 8.51644H6.66512L6.5664 8.52305C6.21131 8.57098 5.93762 8.87384 5.93762 9.24031C5.93762 9.64009 6.26333 9.96417 6.66512 9.96417H6.70951L6.80822 9.95756C7.16331 9.90963 7.437 9.60677 7.437 9.24031Z" fill="#200E32"/>
</svg>
