<svg width="379" height="432" viewBox="0 0 379 432" fill="none" xmlns="http://www.w3.org/2000/svg">
<path d="M167.311 233.796C208.823 301.466 324.317 289.266 365.379 357.442C387.207 393.135 379.038 441.195 357.146 476.622C334.775 512.077 300.317 538.166 266.759 563.24C226.759 593.024 186.788 623.287 146.31 653.099C104.482 684.434 58.911 717.435 6.80636 721.515C-51.5194 725.968 -108.76 692.396 -143.747 645.478C-178.762 598.082 -193.802 539.399 -199.721 480.65C-213.24 343.072 -177.29 133.339 -67.8848 35.4914C-22.2944 -5.19854 34.481 -11.4808 88.2857 20.8558C176.965 74.169 122.077 160.103 167.311 233.796Z" fill="#FCEAD4"/>
</svg>
