<svg width="413" height="178" viewBox="0 0 413 178" fill="none" xmlns="http://www.w3.org/2000/svg">
<g style="mix-blend-mode:darken">
<path d="M331.138 30.0154C395.117 65.5595 378.5 58.1041 423 100.604C431.619 108.836 456.5 140.299 493.5 155.104C533.48 171.101 548.362 183.451 588.551 198.96C628.741 214.47 667.67 245.047 674.915 287.468C685.016 346.145 626.455 399.066 567 404.197C507.545 409.328 406.745 436.524 357 404.197C306.767 371.66 284.286 395.355 227 380.604C125.965 354.598 228.652 438.713 130.69 404.197C61.195 380.161 8.94829 313.229 1.57247 240.112C-15.8897 55.7141 176.389 -55.4587 331.138 30.0154Z" fill="#FCEAD4" fill-opacity="0.75"/>
</g>
</svg>
