<svg width="362" height="522" viewBox="0 0 362 522" fill="none" xmlns="http://www.w3.org/2000/svg">
<path d="M2.60116 25.1264C9.34939 64.4621 40.5781 95.1943 75.0309 114.836C109.484 134.479 148.294 146.341 183.403 165.093C218.512 183.845 251.709 211.906 261.991 250.549C277.286 306.635 241.803 374.189 276.05 421.715C295.076 448.118 329.66 457.138 361.132 464.411C429.84 480.462 498.774 496.953 567.923 512.779C610.258 522.843 661.422 530.624 692.35 499.84C725.031 467.051 713.728 412.262 700.297 367.447C668.909 265.682 637.286 162.371 582.758 70.7481C528.014 -20.209 447.917 -101.007 347.202 -135.17C252.926 -166.507 -23.2296 -125.587 2.60116 25.1264Z" fill="#FCEAD4"/>
</svg>
