<svg width="261" height="372" viewBox="0 0 261 372" fill="none" xmlns="http://www.w3.org/2000/svg">
<path d="M71.2926 -173.827C97.0242 -147.018 80.5381 -102.028 52.5938 -69.6633C50.6976 -67.7353 49.2219 -65.7644 47.3257 -63.8364C23.7228 -36.5443 -2.78873 -5.73027 4.29667 28.9354C9.96499 56.6679 35.7979 74.1533 60.4123 91.09C86.2452 108.575 112.834 126.986 117.026 156.69C119.226 172.613 114.234 188.226 109.705 203.463C107.758 210.053 105.348 217.02 103.822 223.653C91.6107 276.716 120.857 335.705 169.518 358.489C218.556 381.736 282.596 366.206 315.439 323.309L317.035 324.321C283.687 368.014 218.342 383.835 168.463 360.503C118.583 337.17 89.4653 276.921 101.299 223.395C102.825 216.762 104.815 209.753 107.182 203.206C112.089 188.432 116.66 172.775 114.417 157.272C110.139 128.409 83.9286 110.46 58.9366 93.0609C33.9446 75.6613 8.11165 58.176 2.10851 29.5607C-5.31171 -5.98767 21.6631 -37.1787 45.7294 -64.8479C47.6256 -66.7758 49.1013 -68.7467 50.9975 -70.6747C78.0151 -102.286 94.3727 -146.015 69.8598 -172.276L71.2926 -173.827Z" fill="white"/>
</svg>
