<svg width="329" height="332" viewBox="0 0 329 332" fill="none" xmlns="http://www.w3.org/2000/svg">
<path d="M278.03 528C249.711 503.941 261.546 457.51 286.061 422.476C287.752 420.366 289.02 418.255 290.71 416.145C311.422 386.598 334.669 353.253 324.102 319.485C315.648 292.471 288.174 277.698 261.968 263.346C234.494 248.573 206.175 232.956 198.989 203.831C195.185 188.214 198.566 172.174 201.525 156.556C202.793 149.803 204.484 142.627 205.329 135.874C212.092 81.8456 177.01 26.1291 126.288 8.40111C75.1441 -9.74897 13.0102 12.2 -15.3093 58.2083L-17 57.3641C11.7422 10.5116 75.144 -11.8594 127.134 6.29064C179.123 24.4407 214.206 81.4235 207.865 135.874C207.02 142.627 205.752 149.803 204.061 156.556C200.68 171.752 197.721 187.791 201.525 202.987C208.711 231.267 236.607 246.463 263.236 261.236C289.865 276.009 317.339 290.783 326.215 318.641C337.205 353.253 313.535 387.02 292.401 416.989C290.71 419.1 289.442 421.21 287.752 423.32C264.082 457.51 252.247 502.674 279.298 526.312L278.03 528Z" fill="white"/>
</svg>
